<svg width="3300" height="2200" viewBox="0 0 3300 2200" fill="none" xmlns="http://www.w3.org/2000/svg">
<g id="foul.fill 1" clip-path="url(#clip0_150_824)">
<g id="Notes">
<path id="artboard" d="M3300 0H0V2200H3300V0Z" fill="white"/>
<path id="Vector" d="M263 292H3036" stroke="black" stroke-width="0.5"/>
<text id="Weight/Scale Variations" fill="black" xml:space="preserve" style="white-space: pre" font-family="Inter" font-size="13" font-weight="bold" letter-spacing="0em"><tspan x="263" y="321.727">Weight/Scale Variations</tspan></text>
<text id="Ultralight" fill="black" xml:space="preserve" style="white-space: pre" font-family="Inter" font-size="13" letter-spacing="0em"><tspan x="531.661" y="321.727">Ultralight</tspan></text>
<text id="Thin" fill="black" xml:space="preserve" style="white-space: pre" font-family="Inter" font-size="13" letter-spacing="0em"><tspan x="843.066" y="321.727">Thin</tspan></text>
<text id="Light" fill="black" xml:space="preserve" style="white-space: pre" font-family="Inter" font-size="13" letter-spacing="0em"><tspan x="1137.77" y="321.727">Light</tspan></text>
<text id="Regular" fill="black" xml:space="preserve" style="white-space: pre" font-family="Inter" font-size="13" letter-spacing="0em"><tspan x="1426.58" y="321.727">Regular</tspan></text>
<text id="Medium" fill="black" xml:space="preserve" style="white-space: pre" font-family="Inter" font-size="13" letter-spacing="0em"><tspan x="1721.99" y="321.727">Medium</tspan></text>
<text id="Semibold" fill="black" xml:space="preserve" style="white-space: pre" font-family="Inter" font-size="13" letter-spacing="0em"><tspan x="2014.65" y="321.727">Semibold</tspan></text>
<text id="Bold" fill="black" xml:space="preserve" style="white-space: pre" font-family="Inter" font-size="13" letter-spacing="0em"><tspan x="2326.29" y="321.727">Bold</tspan></text>
<text id="Heavy" fill="black" xml:space="preserve" style="white-space: pre" font-family="Inter" font-size="13" letter-spacing="0em"><tspan x="2617.32" y="321.727">Heavy</tspan></text>
<text id="Black" fill="black" xml:space="preserve" style="white-space: pre" font-family="Inter" font-size="13" letter-spacing="0em"><tspan x="2916.8" y="321.727">Black</tspan></text>
<path id="Vector_2" d="M263 1903H3036" stroke="black" stroke-width="0.5"/>
<g id="Group">
<path id="Vector_3" d="M272.248 1933.83C276.604 1933.83 280.139 1930.31 280.139 1925.95C280.139 1921.6 276.604 1918.07 272.248 1918.07C267.902 1918.07 264.367 1921.6 264.367 1925.95C264.367 1930.31 267.902 1933.83 272.248 1933.83ZM272.248 1932.35C268.713 1932.35 265.861 1929.49 265.861 1925.95C265.861 1922.42 268.713 1919.55 272.248 1919.55C275.783 1919.55 278.645 1922.42 278.645 1925.95C278.645 1929.49 275.783 1932.35 272.248 1932.35ZM268.654 1925.95C268.654 1926.38 268.957 1926.67 269.406 1926.67H271.506V1928.79C271.506 1929.23 271.799 1929.54 272.228 1929.54C272.678 1929.54 272.971 1929.23 272.971 1928.79V1926.67H275.09C275.529 1926.67 275.832 1926.38 275.832 1925.95C275.832 1925.51 275.529 1925.21 275.09 1925.21H272.971V1923.1C272.971 1922.65 272.678 1922.35 272.228 1922.35C271.799 1922.35 271.506 1922.65 271.506 1923.1V1925.21H269.406C268.957 1925.21 268.654 1925.51 268.654 1925.95Z" fill="black"/>
</g>
<g id="Group_2">
<path id="Vector_4" d="M293.215 1935.91C298.713 1935.91 303.176 1931.45 303.176 1925.95C303.176 1920.45 298.713 1915.99 293.215 1915.99C287.717 1915.99 283.254 1920.45 283.254 1925.95C283.254 1931.45 287.717 1935.91 293.215 1935.91ZM293.215 1934.25C288.625 1934.25 284.914 1930.54 284.914 1925.95C284.914 1921.36 288.625 1917.65 293.215 1917.65C297.805 1917.65 301.516 1921.36 301.516 1925.95C301.516 1930.54 297.805 1934.25 293.215 1934.25ZM288.684 1925.95C288.684 1926.43 289.016 1926.75 289.514 1926.75H292.385V1929.63C292.385 1930.12 292.717 1930.46 293.195 1930.46C293.684 1930.46 294.025 1930.13 294.025 1929.63V1926.75H296.906C297.395 1926.75 297.736 1926.43 297.736 1925.95C297.736 1925.46 297.395 1925.12 296.906 1925.12H294.025V1922.25C294.025 1921.75 293.684 1921.41 293.195 1921.41C292.717 1921.41 292.385 1921.75 292.385 1922.25V1925.12H289.514C289.016 1925.12 288.684 1925.46 288.684 1925.95Z" fill="black"/>
</g>
<g id="Group_3">
<path id="Vector_5" d="M319.895 1938.67C326.916 1938.67 332.619 1932.97 332.619 1925.95C332.619 1918.93 326.916 1913.23 319.895 1913.23C312.873 1913.23 307.18 1918.93 307.18 1925.95C307.18 1932.97 312.873 1938.67 319.895 1938.67ZM319.895 1936.85C313.869 1936.85 308.996 1931.98 308.996 1925.95C308.996 1919.93 313.869 1915.05 319.895 1915.05C325.92 1915.05 330.793 1919.93 330.793 1925.95C330.793 1931.98 325.92 1936.85 319.895 1936.85ZM314.123 1925.95C314.123 1926.47 314.494 1926.83 315.041 1926.83H318.986V1930.79C318.986 1931.32 319.357 1931.7 319.875 1931.7C320.412 1931.7 320.783 1931.33 320.783 1930.79V1926.83H324.738C325.275 1926.83 325.656 1926.47 325.656 1925.95C325.656 1925.4 325.285 1925.03 324.738 1925.03H320.783V1921.09C320.783 1920.54 320.412 1920.16 319.875 1920.16C319.357 1920.16 318.986 1920.54 318.986 1921.09V1925.03H315.041C314.494 1925.03 314.123 1925.4 314.123 1925.95Z" fill="black"/>
</g>
<text id="Design Variations" fill="black" xml:space="preserve" style="white-space: pre" font-family="Inter" font-size="13" font-weight="bold" letter-spacing="0em"><tspan x="263" y="1952.73">Design Variations</tspan></text>
<text id="Symbols are supported in up to nine weights and three scales." fill="black" xml:space="preserve" style="white-space: pre" font-family="Inter" font-size="13" letter-spacing="0em"><tspan x="263" y="1970.73">Symbols are supported in up to nine weights and three scales.</tspan></text>
<text id="For optimal layout with text and other symbols, vertically align" fill="black" xml:space="preserve" style="white-space: pre" font-family="Inter" font-size="13" letter-spacing="0em"><tspan x="263" y="1988.73">For optimal layout with text and other symbols, vertically align</tspan></text>
<text id="symbols with the adjacent text." fill="black" xml:space="preserve" style="white-space: pre" font-family="Inter" font-size="13" letter-spacing="0em"><tspan x="263" y="2006.73">symbols with the adjacent text.</tspan></text>
<path id="Vector_6" d="M776 1919V1933" stroke="#00AEEF" stroke-width="0.5"/>
<g id="Group_4">
<path id="Vector_7" d="M779.312 1933.16C779.83 1933.16 780.084 1932.96 780.27 1932.42L781.529 1928.97H787.291L788.551 1932.42C788.736 1932.96 788.99 1933.16 789.498 1933.16C790.016 1933.16 790.348 1932.85 790.348 1932.36C790.348 1932.19 790.318 1932.04 790.24 1931.83L785.66 1919.63C785.436 1919.04 785.035 1918.73 784.41 1918.73C783.805 1918.73 783.395 1919.03 783.18 1919.62L778.6 1931.84C778.521 1932.04 778.492 1932.2 778.492 1932.37C778.492 1932.86 778.805 1933.16 779.312 1933.16ZM782.008 1927.48L784.381 1920.91H784.43L786.803 1927.48H782.008Z" fill="black"/>
</g>
<path id="Vector_8" d="M792.836 1919V1933" stroke="#00AEEF" stroke-width="0.5"/>
<text id="Margins" fill="black" xml:space="preserve" style="white-space: pre" font-family="Inter" font-size="13" font-weight="bold" letter-spacing="0em"><tspan x="776" y="1952.73">Margins</tspan></text>
<text id="Leading and trailing margins on the left and right side of each symbol" fill="black" xml:space="preserve" style="white-space: pre" font-family="Inter" font-size="13" letter-spacing="0em"><tspan x="776" y="1970.73">Leading and trailing margins on the left and right side of each symbol</tspan></text>
<text id="can be adjusted by modifying the x-location of the margin guidelines." fill="black" xml:space="preserve" style="white-space: pre" font-family="Inter" font-size="13" letter-spacing="0em"><tspan x="776" y="1988.73">can be adjusted by modifying the x-location of the margin guidelines.</tspan></text>
<text id="Modifications are automatically applied proportionally to all" fill="black" xml:space="preserve" style="white-space: pre" font-family="Inter" font-size="13" letter-spacing="0em"><tspan x="776" y="2006.73">Modifications are automatically applied proportionally to all</tspan></text>
<text id="scales and weights." fill="black" xml:space="preserve" style="white-space: pre" font-family="Inter" font-size="13" letter-spacing="0em"><tspan x="776" y="2024.73">scales and weights.</tspan></text>
<g id="Group_5">
<path id="Vector_9" d="M1291.84 1934.86L1293.54 1936.57C1294.4 1937.44 1295.39 1937.38 1296.32 1936.36L1307.01 1924.57L1306.04 1923.59L1295.43 1935.27C1295.08 1935.67 1294.74 1935.77 1294.28 1935.3L1293.1 1934.14C1292.63 1933.68 1292.74 1933.34 1293.14 1932.98L1304.62 1922.18L1303.64 1921.21L1292.05 1932.1C1291.06 1933.02 1290.98 1933.99 1291.84 1934.86ZM1298.26 1916.67C1297.84 1917.08 1297.81 1917.66 1298.04 1918.05C1298.28 1918.41 1298.74 1918.64 1299.38 1918.48C1300.85 1918.13 1302.37 1918.08 1303.8 1919.01L1303.21 1920.47C1302.87 1921.3 1303.04 1921.88 1303.58 1922.43L1305.88 1924.75C1306.37 1925.23 1306.78 1925.25 1307.34 1925.16L1308.41 1924.96L1309.07 1925.63L1309.03 1926.19C1308.99 1926.69 1309.12 1927.07 1309.61 1927.55L1310.37 1928.29C1310.85 1928.77 1311.46 1928.8 1311.93 1928.33L1314.84 1925.41C1315.31 1924.94 1315.29 1924.35 1314.81 1923.87L1314.04 1923.11C1313.56 1922.63 1313.19 1922.47 1312.71 1922.51L1312.14 1922.56L1311.49 1921.92L1311.74 1920.8C1311.86 1920.23 1311.71 1919.8 1311.12 1919.21L1308.92 1917.02C1305.58 1913.7 1301.15 1913.78 1298.26 1916.67ZM1299.75 1917.04C1302.19 1915.26 1305.48 1915.57 1307.7 1917.79L1310.13 1920.21C1310.37 1920.44 1310.41 1920.63 1310.34 1920.97L1310.02 1922.45L1311.52 1923.94L1312.51 1923.88C1312.76 1923.87 1312.84 1923.89 1313.04 1924.08L1313.61 1924.66L1311.17 1927.1L1310.59 1926.52C1310.4 1926.33 1310.37 1926.25 1310.38 1925.99L1310.45 1925.01L1308.95 1923.53L1307.43 1923.78C1307.11 1923.85 1306.96 1923.82 1306.72 1923.58L1304.71 1921.58C1304.46 1921.35 1304.43 1921.18 1304.59 1920.81L1305.47 1918.72C1303.9 1917.27 1301.87 1916.64 1299.84 1917.24C1299.69 1917.28 1299.63 1917.15 1299.75 1917.04Z" fill="black"/>
</g>
<text id="Exporting" fill="black" xml:space="preserve" style="white-space: pre" font-family="Inter" font-size="13" font-weight="bold" letter-spacing="0em"><tspan x="1289" y="1952.73">Exporting</tspan></text>
<text id="Symbols should be outlined when exporting to ensure the" fill="black" xml:space="preserve" style="white-space: pre" font-family="Inter" font-size="13" letter-spacing="0em"><tspan x="1289" y="1970.73">Symbols should be outlined when exporting to ensure the</tspan></text>
<text id="design is preserved when submitting to Xcode." fill="black" xml:space="preserve" style="white-space: pre" font-family="Inter" font-size="13" letter-spacing="0em"><tspan x="1289" y="1988.73">design is preserved when submitting to Xcode.</tspan></text>
<text id="template-version" fill="black" xml:space="preserve" style="white-space: pre" font-family="Inter" font-size="13" letter-spacing="0em"><tspan x="2946.54" y="1932.73">Template v.6.0</tspan></text>
<text id="Requires Xcode 16 or greater" fill="black" xml:space="preserve" style="white-space: pre" font-family="Inter" font-size="13" letter-spacing="0em"><tspan x="2858.16" y="1950.73">Requires Xcode 16 or greater</tspan></text>
<text id="descriptive-name" fill="black" xml:space="preserve" style="white-space: pre" font-family="Inter" font-size="13" letter-spacing="0em"><tspan x="2904.2" y="1968.73">Generated from foul.1</tspan></text>
<text id="Typeset at 100.0 points" fill="black" xml:space="preserve" style="white-space: pre" font-family="Inter" font-size="13" letter-spacing="0em"><tspan x="2892.56" y="1986.73">Typeset at 100.0 points</tspan></text>
<text id="Small" fill="black" xml:space="preserve" style="white-space: pre" font-family="Inter" font-size="13" letter-spacing="0em"><tspan x="263" y="725.727">Small</tspan></text>
<text id="Medium_2" fill="black" xml:space="preserve" style="white-space: pre" font-family="Inter" font-size="13" letter-spacing="0em"><tspan x="263" y="1155.73">Medium</tspan></text>
<text id="Large" fill="black" xml:space="preserve" style="white-space: pre" font-family="Inter" font-size="13" letter-spacing="0em"><tspan x="263" y="1585.73">Large</tspan></text>
</g>
<g id="Guides">
<g id="H-reference">
<path id="Vector_10" d="M339.992 695.998H342.636L368.327 628.866H369.029V625.539H367.121L339.992 695.998ZM350.687 671.518H385.98L385.23 669.27H351.437L350.687 671.518ZM394.118 695.998H396.762L369.637 625.539H368.431V628.866L394.118 695.998Z" fill="#27AAE1"/>
</g>
<path id="Baseline-S" d="M263 696H3036" stroke="#27AAE1" stroke-width="0.5"/>
<path id="Capline-S" d="M263 625.539H3036" stroke="#27AAE1" stroke-width="0.5"/>
<g id="H-reference_2">
<path id="Vector_11" d="M339.992 1126H342.636L368.327 1058.87H369.029V1055.54H367.121L339.992 1126ZM350.687 1101.52H385.98L385.23 1099.27H351.437L350.687 1101.52ZM394.118 1126H396.762L369.637 1055.54H368.431V1058.87L394.118 1126Z" fill="#27AAE1"/>
</g>
<path id="Baseline-M" d="M263 1126H3036" stroke="#27AAE1" stroke-width="0.5"/>
<path id="Capline-M" d="M263 1055.54H3036" stroke="#27AAE1" stroke-width="0.5"/>
<g id="H-reference_3">
<path id="Vector_12" d="M339.992 1556H342.636L368.327 1488.87H369.029V1485.54H367.121L339.992 1556ZM350.687 1531.52H385.98L385.23 1529.27H351.437L350.687 1531.52ZM394.118 1556H396.762L369.637 1485.54H368.431V1488.87L394.118 1556Z" fill="#27AAE1"/>
</g>
<path id="Baseline-L" d="M263 1556H3036" stroke="#27AAE1" stroke-width="0.5"/>
<path id="Capline-L" d="M263 1485.54H3036" stroke="#27AAE1" stroke-width="0.5"/>
<path id="right-margin-Regular-M" d="M1533.18 1031V1090.66V1150.33" stroke="#00AEEF" stroke-width="0.5"/>
<path id="left-margin-Regular-M" d="M1391.32 1030.79V1150.12" stroke="#00AEEF" stroke-width="0.5"/>
</g>
<g id="Symbols">
<g id="Regular-M">
<path id="Vector_13" d="M1449.8 1041.25H1474.7C1502.07 1041.25 1524.25 1063.43 1524.25 1090.8C1524.25 1118.17 1502.07 1140.35 1474.7 1140.35H1449.8C1422.43 1140.35 1400.25 1118.17 1400.25 1090.8C1400.25 1063.65 1422.09 1041.6 1449.16 1041.25L1449.8 1041.25ZM1448.4 1109.19C1444.73 1109.19 1441.81 1111.97 1441.81 1115.54C1441.81 1119.11 1444.73 1121.9 1448.4 1121.9C1452.07 1121.9 1454.99 1119.11 1454.99 1115.54C1454.99 1111.97 1452.07 1109.19 1448.4 1109.19ZM1476.1 1109.19C1472.43 1109.19 1469.51 1111.97 1469.51 1115.54C1469.51 1119.11 1472.43 1121.9 1476.1 1121.9C1479.77 1121.9 1482.69 1119.11 1482.69 1115.54C1482.69 1111.97 1479.77 1109.19 1476.1 1109.19ZM1448.36 1063.43C1446.58 1063.43 1445.1 1063.98 1444.06 1065.02C1443.03 1066.06 1442.47 1067.56 1442.47 1069.4C1442.47 1069.71 1442.47 1070.17 1442.51 1070.57H1442.51L1443.09 1097.5V1097.5C1443.15 1099.19 1443.62 1100.57 1444.52 1101.53C1445.43 1102.49 1446.73 1102.99 1448.4 1102.99C1450.07 1102.99 1451.37 1102.49 1452.27 1101.53C1453.11 1100.63 1453.57 1099.36 1453.66 1097.81L1453.67 1097.5L1454.29 1070.57V1070.57C1454.29 1070.38 1454.3 1070.17 1454.31 1069.97C1454.32 1069.77 1454.33 1069.56 1454.33 1069.4C1454.33 1067.56 1453.76 1066.06 1452.71 1065.02C1451.66 1063.98 1450.16 1063.43 1448.36 1063.43ZM1476.06 1063.43C1474.28 1063.43 1472.8 1063.98 1471.77 1065.02C1470.73 1066.06 1470.17 1067.56 1470.17 1069.4C1470.17 1069.7 1470.17 1070.17 1470.21 1070.57V1070.57L1470.79 1097.5V1097.5C1470.85 1099.19 1471.32 1100.57 1472.22 1101.53C1473.13 1102.49 1474.43 1102.99 1476.1 1102.99C1477.77 1102.99 1479.08 1102.49 1479.97 1101.53C1480.81 1100.63 1481.27 1099.36 1481.36 1097.81L1481.37 1097.5L1481.99 1070.57V1070.57C1481.99 1070.38 1482 1070.17 1482.01 1069.97C1482.02 1069.77 1482.03 1069.56 1482.03 1069.4C1482.03 1067.56 1481.46 1066.06 1480.41 1065.02C1479.36 1063.98 1477.86 1063.43 1476.06 1063.43Z" stroke="black" stroke-width="0.5"/>
</g>
</g>
</g>
<defs>
<clipPath id="clip0_150_824">
<rect width="3300" height="2200" fill="white"/>
</clipPath>
</defs>
</svg>
