<?xml version="1.0" encoding="iso-8859-1"?>
<!-- Uploaded to: SVG Repo, www.svgrepo.com, Generator: SVG Repo Mixer Tools -->
<svg fill="#000000" height="800px" width="800px" version="1.1" id="Capa_1" xmlns="http://www.w3.org/2000/svg" xmlns:xlink="http://www.w3.org/1999/xlink" 
	 viewBox="0 0 470 470" xml:space="preserve">
<g>
	<path d="M409.066,301.493c-4.033,0-7.995,0.71-11.729,2.084L352.945,235l44.393-68.577c3.733,1.374,7.695,2.084,11.729,2.084
		c18.75,0,34.005-15.255,34.005-34.005s-15.255-34.005-34.005-34.005c-16.772,0-30.747,12.206-33.509,28.202l-81.586,4.157
		l-37.19-72.731c7.675-6.376,12.224-15.858,12.224-26.121C269.005,15.255,253.75,0,235,0s-34.005,15.255-34.005,34.005
		c0,10.263,4.549,19.744,12.224,26.121l-37.19,72.731L94.442,128.7c-2.762-15.996-16.736-28.202-33.509-28.202
		c-18.75,0-34.005,15.255-34.005,34.005s15.255,34.005,34.005,34.005c4.033,0,7.995-0.71,11.729-2.084L117.055,235l-44.393,68.577
		c-3.733-1.374-7.695-2.084-11.729-2.084c-18.75,0-34.005,15.255-34.005,34.005s15.255,34.005,34.005,34.005
		c16.772,0,30.747-12.206,33.509-28.202l81.586-4.157l37.19,72.731c-7.675,6.376-12.224,15.858-12.224,26.121
		C200.995,454.745,216.25,470,235,470s34.005-15.255,34.005-34.005c0-10.263-4.549-19.744-12.224-26.121l37.19-72.731l81.586,4.157
		c2.762,15.996,16.736,28.202,33.509,28.202c18.75,0,34.005-15.255,34.005-34.005S427.816,301.493,409.066,301.493z
		 M390.063,335.498c0-0.326,0.009-0.65,0.024-0.972c0.208-4.135-2.974-7.656-7.108-7.867l-71.599-3.648
		c5.627-4.906,10.839-10.388,15.543-16.421c2.548-3.266,1.965-7.979-1.302-10.526c-0.069-0.054-0.143-0.098-0.213-0.149
		c-3.257-2.364-7.822-1.746-10.313,1.452c-19.4,24.877-48.594,39.145-80.095,39.145c-55.974,0-101.511-45.538-101.511-101.511
		S179.026,133.489,235,133.489S336.511,179.027,336.511,235c0,13.198-2.501,26.045-7.433,38.184
		c-1.526,3.754,0.215,8.015,3.883,9.659c0.082,0.037,0.159,0.079,0.242,0.113c3.839,1.559,8.212-0.289,9.771-4.125
		c2.861-7.042,5.007-14.29,6.433-21.691l38.962,60.188c1.081,1.671,2.783,2.843,4.729,3.259c1.946,0.416,3.978,0.041,5.647-1.042
		c3.077-1.996,6.646-3.051,10.319-3.051c10.479,0,19.005,8.526,19.005,19.005s-8.525,19.005-19.005,19.005
		C398.588,354.502,390.063,345.977,390.063,335.498z M235,455c-10.479,0-19.005-8.526-19.005-19.005
		c0-7.164,3.97-13.648,10.358-16.922c3.685-1.888,5.143-6.404,3.258-10.089l-32.653-63.857c11.928,4.132,24.726,6.384,38.042,6.384
		c13.159,0,25.964-2.179,38.007-6.314l-32.618,63.788c-1.885,3.686-0.427,8.201,3.258,10.089
		c6.389,3.274,10.358,9.758,10.358,16.922C254.005,446.474,245.479,455,235,455z M60.934,354.502
		c-10.479,0-19.005-8.526-19.005-19.005s8.525-19.005,19.005-19.005c3.674,0,7.242,1.055,10.319,3.051
		c1.669,1.083,3.702,1.458,5.647,1.042c1.946-0.416,3.648-1.588,4.729-3.259l38.975-60.207
		c5.035,26.091,18.795,49.113,38.123,65.886l-71.706,3.653c-4.135,0.211-7.316,3.732-7.108,7.867
		c0.016,0.322,0.024,0.646,0.024,0.972C79.938,345.977,71.412,354.502,60.934,354.502z M60.934,153.507
		c-10.479,0-19.005-8.526-19.005-19.005s8.525-19.005,19.005-19.005c10.479,0,19.004,8.526,19.004,19.005
		c0,0.326-0.009,0.65-0.024,0.972c-0.208,4.135,2.974,7.656,7.108,7.867l71.706,3.653c-19.328,16.773-33.088,39.794-38.123,65.886
		L81.63,152.673c-1.081-1.671-2.783-2.843-4.729-3.259c-1.943-0.416-3.978-0.041-5.647,1.042
		C68.176,152.452,64.607,153.507,60.934,153.507z M235,15c10.479,0,19.005,8.526,19.005,19.005c0,7.164-3.97,13.648-10.358,16.922
		c-3.685,1.888-5.143,6.404-3.258,10.089l32.653,63.857c-11.928-4.132-24.726-6.384-38.042-6.384s-26.114,2.252-38.042,6.384
		l32.653-63.857c1.885-3.686,0.427-8.201-3.258-10.089c-6.389-3.274-10.358-9.758-10.358-16.922C215.995,23.526,224.521,15,235,15z
		 M409.066,115.498c10.479,0,19.005,8.526,19.005,19.005s-8.525,19.005-19.005,19.005c-3.674,0-7.242-1.055-10.319-3.051
		c-1.67-1.083-3.703-1.459-5.647-1.042c-1.946,0.416-3.648,1.588-4.729,3.259l-38.975,60.207
		c-5.035-26.091-18.795-49.113-38.123-65.886l71.706-3.653c4.135-0.211,7.316-3.732,7.108-7.867
		c-0.016-0.322-0.024-0.646-0.024-0.972C390.063,124.023,398.588,115.498,409.066,115.498z"/>
	<path d="M205.384,218.091l-24.499,22.85c-3.029,2.825-3.194,7.571-0.369,10.6c1.477,1.584,3.479,2.385,5.486,2.385
		c1.832,0,3.668-0.667,5.113-2.015l19.384-18.078l19.384,18.078c2.88,2.687,7.349,2.688,10.23,0l19.385-18.079l19.387,18.079
		c3.029,2.825,7.774,2.659,10.601-0.37c2.824-3.029,2.659-7.775-0.37-10.6l-24.502-22.85c-2.881-2.687-7.35-2.686-10.23,0
		l-19.385,18.079l-19.384-18.079C212.733,215.404,208.265,215.404,205.384,218.091z"/>
	<path d="M251.422,150.083c-4.074-0.787-8.001,1.876-8.786,5.942c-0.022,0.116-0.032,0.231-0.049,0.347
		c-0.573,3.941,2.041,7.676,5.991,8.438C282.141,171.29,306.5,200.809,306.5,235c0,39.425-32.075,71.5-71.5,71.5
		s-71.5-32.075-71.5-71.5c0-34.191,24.359-63.71,57.922-70.189c3.95-0.763,6.565-4.497,5.991-8.438
		c-0.017-0.116-0.027-0.231-0.049-0.347c-0.785-4.066-4.71-6.73-8.786-5.942C177.973,157.922,148.5,193.635,148.5,235
		c0,47.696,38.804,86.5,86.5,86.5s86.5-38.804,86.5-86.5C321.5,193.635,292.027,157.922,251.422,150.083z"/>
</g>
</svg>