<svg width="25" height="20" viewBox="0 0 25 20" fill="none" xmlns="http://www.w3.org/2000/svg">
<path fill-rule="evenodd" clip-rule="evenodd" d="M10 0H15C20.5228 0 25 4.47715 25 10C25 15.5228 20.5228 20 15 20H10C4.47715 20 0 15.5228 0 10C0 4.47715 4.47715 0 10 0ZM16.5547 14.9688C16.5547 15.6562 15.9922 16.1953 15.2812 16.1953C14.5703 16.1953 14.0078 15.6562 14.0078 14.9688C14.0078 14.2812 14.5703 13.7422 15.2812 13.7422C15.9922 13.7422 16.5547 14.2812 16.5547 14.9688ZM10.9922 14.9688C10.9922 15.6562 10.4297 16.1953 9.71875 16.1953C9.00781 16.1953 8.44531 15.6562 8.44531 14.9688C8.44531 14.2812 9.00781 13.7422 9.71875 13.7422C10.4297 13.7422 10.9922 14.2812 10.9922 14.9688ZM15.2812 12.3984C15.9297 12.3984 16.2734 12.0078 16.2891 11.3438L16.4219 5.70312C16.4219 4.98438 15.9766 4.55469 15.2734 4.55469C14.5781 4.55469 14.1406 4.98438 14.1406 5.70312L14.2656 11.3438C14.2891 12.0078 14.6328 12.3984 15.2812 12.3984ZM10.7266 11.3438C10.7109 12.0078 10.3672 12.3984 9.71875 12.3984C9.07031 12.3984 8.72656 12.0078 8.70312 11.3438L8.57812 5.70312C8.57812 4.98438 9.01563 4.55469 9.71094 4.55469C10.4141 4.55469 10.8594 4.98438 10.8594 5.70312L10.7266 11.3438Z" fill="black"/>
</svg>
