<svg width="31" height="20" viewBox="0 0 31 20" fill="none" xmlns="http://www.w3.org/2000/svg">
<path fill-rule="evenodd" clip-rule="evenodd" d="M21 0H10C4.47715 0 0 4.47715 0 10C0 15.5228 4.47715 20 10 20H21C26.5228 20 31 15.5228 31 10C31 4.47715 26.5228 0 21 0ZM9.9375 16.1953C9.22656 16.1953 8.66406 15.6563 8.66406 14.9688C8.66406 14.2813 9.22656 13.7422 9.9375 13.7422C10.6484 13.7422 11.2109 14.2813 11.2109 14.9688C11.2109 15.6563 10.6484 16.1953 9.9375 16.1953ZM15.5 16.1953C14.7891 16.1953 14.2266 15.6563 14.2266 14.9688C14.2266 14.2813 14.7891 13.7422 15.5 13.7422C16.2109 13.7422 16.7734 14.2813 16.7734 14.9688C16.7734 15.6563 16.2109 16.1953 15.5 16.1953ZM21.0625 16.1953C20.3516 16.1953 19.7891 15.6563 19.7891 14.9688C19.7891 14.2813 20.3516 13.7422 21.0625 13.7422C21.7734 13.7422 22.3359 14.2813 22.3359 14.9688C22.3359 15.6563 21.7734 16.1953 21.0625 16.1953ZM14.4922 11.3438C14.5078 12.0078 14.8516 12.3984 15.5 12.3984C16.1484 12.3984 16.4922 12.0078 16.5156 11.3438L16.6406 5.70312C16.6406 4.98438 16.2031 4.55469 15.5078 4.55469C14.8047 4.55469 14.3594 4.98438 14.3594 5.70312L14.4922 11.3438ZM9.9375 12.3984C9.28906 12.3984 8.94531 12.0078 8.92969 11.3438L8.79688 5.70312C8.79688 4.98438 9.24219 4.55469 9.94531 4.55469C10.6406 4.55469 11.0781 4.98438 11.0781 5.70312L10.9531 11.3438C10.9297 12.0078 10.5859 12.3984 9.9375 12.3984ZM20.0547 11.3438C20.0703 12.0078 20.4141 12.3984 21.0625 12.3984C21.7109 12.3984 22.0547 12.0078 22.0781 11.3438L22.2031 5.70312C22.2031 4.98438 21.7656 4.55469 21.0703 4.55469C20.3672 4.55469 19.9219 4.98438 19.9219 5.70312L20.0547 11.3438Z" fill="black"/>
</svg>
