<svg width="20" height="20" viewBox="0 0 20 20" fill="none" xmlns="http://www.w3.org/2000/svg">
<path fill-rule="evenodd" clip-rule="evenodd" d="M20 10C20 4.48899 15.5133 0 9.9948 0C4.48666 4.16191e-07 7.07245e-06 4.48899 0 10C0 15.511 4.48665 20 9.9948 20C15.5133 20 20 15.511 20 10ZM8.7178 14.9841C8.7178 14.2962 9.28033 13.7569 9.99127 13.7569C10.7022 13.7569 11.2647 14.2962 11.2647 14.9841C11.2647 15.6719 10.7022 16.2113 9.99127 16.2113C9.28034 16.2113 8.71783 15.6719 8.7178 14.9841ZM8.85056 5.71339C8.8506 4.99432 9.28815 4.56444 9.98343 4.56443C10.6865 4.56443 11.1319 4.99431 11.132 5.71339L10.999 11.3571C10.9834 12.0215 10.6397 12.4123 9.99127 12.4123C9.34283 12.4123 8.99911 12.0215 8.97567 11.3571L8.85056 5.71339Z" fill="black"/>
</svg>
